<svg xmlns="http://www.w3.org/2000/svg" viewBox="0 0 24 24" style="pointer-events: none; display: block;"><g id="android"><path d="M6,18c0,0.6,0.4,1,1,1h1v3.5C8,23.3,8.7,24,9.5,24c0.8,0,1.5-0.7,1.5-1.5V19h2v3.5c0,0.8,0.7,1.5,1.5,1.5c0.8,0,1.5-0.7,1.5-1.5V19h1c0.6,0,1-0.4,1-1V8H6V18z M3.5,8C2.7,8,2,8.7,2,9.5v7C2,17.3,2.7,18,3.5,18C4.3,18,5,17.3,5,16.5v-7C5,8.7,4.3,8,3.5,8z M20.5,8C19.7,8,19,8.7,19,9.5v7c0,0.8,0.7,1.5,1.5,1.5c0.8,0,1.5-0.7,1.5-1.5v-7C22,8.7,21.3,8,20.5,8z M15.5,2.2l1.3-1.3c0.2-0.2,0.2-0.5,0-0.7c-0.2-0.2-0.5-0.2-0.7,0l-1.5,1.5C13.9,1.2,13,1,12,1c-1,0-1.9,0.2-2.7,0.6L7.9,0.1C7.7,0,7.3,0,7.1,0.1C7,0.3,7,0.7,7.1,0.9l1.3,1.3C7,3.3,6,5,6,7h12C18,5,17,3.2,15.5,2.2z M10,5H9V4h1V5z M15,5h-1V4h1V5z"></path></g></svg>