<svg xmlns="http://www.w3.org/2000/svg" viewBox="0 0 24 24" style="pointer-events: none; display: block;"><g id="post-blogger"><path d="M20,2H4C2.9,2,2,2.9,2,4l0,16c0,1.1,0.9,2,2,2h16c1.1,0,2-0.9,2-2V4C22,2.9,21.1,2,20,2z M16,9v1c0,0.6,0.4,1,1,1c0.6,0,1,0.4,1,1v3c0,1.7-1.3,3-3,3H9c-1.7,0-3-1.3-3-3V8c0-1.7,1.3-3,3-3h4c1.7,0,3,1.3,3,3V9z M10,10h2.6c0.6,0,1-0.4,1-1c0-0.6-0.4-1-1-1H10C9.4,8,9,8.4,9,9C9,9.6,9.4,10,10,10z M14,13h-4c-0.6,0-1,0.4-1,1c0,0.6,0.4,1,1,1h4c0.6,0,1-0.4,1-1C15,13.4,14.6,13,14,13z"></path></g></svg>