<svg xmlns="http://www.w3.org/2000/svg" viewBox="0 0 24 24" style="pointer-events: none; display: block;"><g id="group-add"><path d="M8,10H5V7H3v3H0v2h3v3h2v-3h3V10z M18,11c1.7,0,3-1.3,3-3c0-1.7-1.3-3-3-3c-0.3,0-0.6,0.1-0.9,0.1C17.7,6,18,6.9,18,8s-0.3,2-0.9,2.9C17.4,10.9,17.7,11,18,11z M13,11c1.7,0,3-1.3,3-3c0-1.7-1.3-3-3-3c-1.7,0-3,1.3-3,3C10,9.7,11.3,11,13,11z M19.6,13.2c0.8,0.7,1.4,1.7,1.4,2.8v2h3v-2C24,14.5,21.6,13.5,19.6,13.2z M13,13c-2,0-6,1-6,3v2h12v-2C19,14,15,13,13,13z"></path></g></svg>