<svg xmlns="http://www.w3.org/2000/svg" viewBox="0 0 24 24" style="pointer-events: none; display: block;"><g id="keyboard-alt"><path d="M15.5,10c0.8,0,1.5-0.7,1.5-1.5S16.3,7,15.5,7S14,7.7,14,8.5S14.7,10,15.5,10z M8.5,10C9.3,10,10,9.3,10,8.5S9.3,7,8.5,7C7.7,7,7,7.7,7,8.5S7.7,10,8.5,10z M12,17c2.6,0,4.8-1.7,5.7-4H6.3C7.2,15.3,9.4,17,12,17z M12,1C6.5,1,2,5.5,2,11c0,5.5,4.5,10,10,10c5.5,0,10-4.5,10-10C22,5.5,17.5,1,12,1z M12,19c-4.4,0-8-3.6-8-8s3.6-8,8-8c4.4,0,8,3.6,8,8S16.4,19,12,19z"></path></g></svg>