<svg xmlns="http://www.w3.org/2000/svg" viewBox="0 0 24 24" style="pointer-events: none; display: block;"><g id="call-end"><path d="M12,9c-1.6,0-3.1,0.3-4.6,0.7l0,3.1c0,0.4-0.2,0.7-0.6,0.9c-1,0.5-1.9,1.1-2.7,1.9c-0.2,0.2-0.4,0.3-0.7,0.3c-0.3,0-0.5-0.1-0.7-0.3l-2.5-2.5C0.1,12.9,0,12.7,0,12.4c0-0.3,0.1-0.5,0.3-0.7C3.3,8.8,7.5,7,12,7s8.7,1.8,11.7,4.7c0.2,0.2,0.3,0.4,0.3,0.7c0,0.3-0.1,0.5-0.3,0.7l-2.5,2.5c-0.2,0.2-0.4,0.3-0.7,0.3c-0.3,0-0.5-0.1-0.7-0.3c-0.8-0.7-1.7-1.4-2.7-1.9c-0.3-0.2-0.6-0.5-0.6-0.9l0-3.1C15.1,9.3,13.6,9,12,9z"></path></g></svg>