<svg xmlns="http://www.w3.org/2000/svg" viewBox="0 0 24 24" style="pointer-events: none; display: block;"><g id="chromecast"><path d="M12,2C6.5,2,2,6.5,2,12s4.5,10,10,10c5.5,0,10-4.5,10-10S17.5,2,12,2z M12,4c3,0,5.5,1.6,6.9,4H12c-1.9,0-3.6,1.4-3.9,3.2L5.7,7.1C7.2,5.2,9.4,4,12,4z M15,12c0,1.7-1.3,3-3,3c-1.7,0-3-1.3-3-3c0-1.7,1.3-3,3-3C13.7,9,15,10.3,15,12z M4,12c0-1.5,0.4-2.8,1.1-4l3.5,6l0,0c0.7,1.2,2,2,3.4,2c0.5,0,0.9-0.1,1.3-0.2l-2.4,4.1C7,19.4,4,16,4,12z M12,20l3.5-6l0,0c0.3-0.6,0.6-1.3,0.6-2c0-1.2-0.5-2.3-1.4-3h4.8c0.4,0.9,0.6,1.9,0.6,3C20,16.4,16.4,20,12,20z"></path></g></svg>