<svg xmlns="http://www.w3.org/2000/svg" viewBox="0 0 24 24" style="pointer-events: none; display: block;"><g id="google-plus"><path d="M21,10V7h-2v3h-3v2h3v3h2v-3h3v-2H21z M13.3,13.4l-1.1-0.8c-0.4-0.3-0.8-0.7-0.8-1.4c0-0.7,0.5-1.3,1-1.6c1.3-1,2.6-2.1,2.6-4.3c0-2.1-1.3-3.3-2-3.9h1.7L15.9,0H9.7C5.3,0,3.1,2.8,3.1,5.8c0,2.3,1.8,4.8,5,4.8h0.8c-0.1,0.3-0.4,0.8-0.4,1.3c0,1,0.4,1.4,0.9,2c-1.4,0.1-4,0.4-5.9,1.6c-1.8,1.1-2.3,2.6-2.3,3.7c0,2.3,2.1,4.5,6.6,4.5c5.4,0,8-3,8-5.9C15.8,15.7,14.7,14.6,13.3,13.4z M5.7,4.3c0-2.2,1.3-3.2,2.7-3.2c2.6,0,4,3.5,4,5.5c0,2.6-2.1,3.1-2.9,3.1C7,9.7,5.7,6.6,5.7,4.3z M9.3,22.3c-3.3,0-5.4-1.5-5.4-3.7c0-2.2,2-2.9,2.6-3.2c1.3-0.4,3-0.5,3.3-0.5c0.3,0,0.5,0,0.7,0c2.4,1.7,3.4,2.4,3.4,4C13.9,20.8,12,22.3,9.3,22.3z"></path></g></svg>