<svg xmlns="http://www.w3.org/2000/svg" viewBox="0 0 24 24" style="pointer-events: none; display: block;"><g id="drive-pdf"><path d="M11.3,8.6L11.3,8.6C11.4,8.6,11.4,8.6,11.3,8.6c0.1-0.4,0.2-0.6,0.2-0.9l0-0.2c0.1-0.5,0.1-0.9,0-1c0,0,0,0,0-0.1l-0.1-0.1c0,0,0,0,0,0c0,0,0,0,0,0c0,0,0,0.1-0.1,0.1C11.1,7,11.1,7.7,11.3,8.6C11.3,8.6,11.3,8.6,11.3,8.6z M8.3,15.5c-0.2,0.1-0.4,0.2-0.5,0.3c-0.7,0.6-1.2,1.3-1.3,1.6c0,0,0,0,0,0c0,0,0,0,0,0c0,0,0,0,0,0C7.1,17.3,7.7,16.7,8.3,15.5C8.4,15.5,8.4,15.5,8.3,15.5C8.4,15.5,8.3,15.5,8.3,15.5z M17.5,14c-0.1-0.1-0.5-0.4-1.9-0.4c-0.1,0-0.1,0-0.2,0c0,0,0,0,0,0c0,0,0,0,0,0.1c0.7,0.3,1.4,0.5,1.9,0.5c0.1,0,0.1,0,0.2,0l0,0c0,0,0.1,0,0.1,0c0,0,0,0,0-0.1c0,0,0,0,0,0C17.6,14.1,17.5,14.1,17.5,14z M19,3H5C3.9,3,3,3.9,3,5v14c0,1.1,0.9,2,2,2h14c1.1,0,2-0.9,2-2V5C21,3.9,20.1,3,19,3z M17.9,14.8C17.7,14.9,17.4,15,17,15c-0.8,0-2-0.2-3-0.7c-1.7,0.2-3,0.4-4,0.8c-0.1,0-0.1,0-0.2,0.1c-1.2,2.1-2.2,3.1-3,3.1c-0.2,0-0.3,0-0.4-0.1l-0.5-0.3l0-0.1c-0.1-0.2-0.1-0.3-0.1-0.5c0.1-0.5,0.7-1.4,1.9-2.1c0.2-0.1,0.5-0.3,0.9-0.5c0.3-0.5,0.6-1.1,1-1.8c0.5-1,0.8-2,1.1-2.9l0,0c-0.4-1.2-0.6-1.9-0.2-3.3c0.1-0.4,0.4-0.8,0.8-0.8l0.2,0c0.2,0,0.4,0.1,0.6,0.2c0.7,0.7,0.4,2.3,0,3.6c0,0.1,0,0.1,0,0.1c0.4,1.1,1,2,1.6,2.6c0.3,0.2,0.5,0.4,0.9,0.6c0.5,0,0.9-0.1,1.3-0.1c1.2,0,2,0.2,2.3,0.7c0.1,0.2,0.1,0.4,0.1,0.6C18.2,14.3,18.1,14.6,17.9,14.8z M11.4,10.9c-0.2,0.7-0.6,1.5-1,2.4c-0.2,0.4-0.4,0.7-0.6,1.1c0,0,0.1,0,0.1,0l0.1,0v0c1.3-0.5,2.5-0.8,3.3-0.9c-0.2-0.1-0.3-0.2-0.4-0.3C12.4,12.6,11.8,11.8,11.4,10.9z"></path></g></svg>