<svg xmlns="http://www.w3.org/2000/svg" viewBox="0 0 24 24" style="pointer-events: none; display: block;"><g id="google"><path d="M16.3,13.4l-1.1-0.8c-0.4-0.3-0.8-0.7-0.8-1.4c0-0.7,0.5-1.3,1-1.6c1.3-1,2.6-2.1,2.6-4.3c0-2.1-1.3-3.3-2-3.9h1.7L18.9,0h-6.2C8.3,0,6.1,2.8,6.1,5.8c0,2.3,1.8,4.8,5,4.8h0.8c-0.1,0.3-0.4,0.8-0.4,1.3c0,1,0.4,1.4,0.9,2c-1.4,0.1-4,0.4-5.9,1.6c-1.8,1.1-2.3,2.6-2.3,3.7c0,2.3,2.1,4.5,6.6,4.5c5.4,0,8-3,8-5.9C18.8,15.7,17.7,14.6,16.3,13.4z M8.7,4.3c0-2.2,1.3-3.2,2.7-3.2c2.6,0,4,3.5,4,5.5c0,2.6-2.1,3.1-2.9,3.1C10,9.7,8.7,6.6,8.7,4.3z M12.3,22.3c-3.3,0-5.4-1.5-5.4-3.7c0-2.2,2-2.9,2.6-3.2c1.3-0.4,3-0.5,3.3-0.5c0.3,0,0.5,0,0.7,0c2.4,1.7,3.4,2.4,3.4,4C16.9,20.8,15,22.3,12.3,22.3z"></path></g></svg>