<svg xmlns="http://www.w3.org/2000/svg" viewBox="0 0 24 24" style="pointer-events: none; display: block;"><g id="post-gplus"><path d="M11.2,8.9c0-1-0.6-3-2.1-3c-0.6,0-1.3,0.4-1.3,1.7c0,1.2,0.6,2.9,2,2.9C9.8,10.5,11.2,10.4,11.2,8.9z M10.6,13.8c-0.1,0-0.2,0-0.3,0h0c-0.3,0-1.2,0.1-1.8,0.3C7.8,14.3,7,14.8,7,15.8c0,1.1,1,2.2,3,2.2c1.5,0,2.4-1,2.4-2C12.4,15.3,11.9,14.8,10.6,13.8z M20,2H4C2.9,2,2,2.9,2,4l0,16c0,1.1,0.9,2,2,2h16c1.1,0,2-0.9,2-2V4C22,2.9,21.1,2,20,2z M9.1,19.2c-2.8,0-4.1-1.6-4.1-3c0-0.5,0.1-1.6,1.5-2.4c0.8-0.5,1.8-0.8,3.1-0.9c-0.2-0.2-0.3-0.5-0.3-1c0-0.2,0-0.3,0.1-0.5H9c-2,0-3.2-1.5-3.2-3c0-1.7,1.3-3.6,4.1-3.6h4.2l-0.3,0.3l-0.7,0.7L13,5.9h-0.7c0.4,0.4,0.9,1.1,0.9,2.2c0,1.4-0.7,2.1-1.6,2.7c-0.2,0.1-0.4,0.4-0.4,0.7c0,0.3,0.2,0.5,0.4,0.6c0.1,0.1,0.3,0.2,0.5,0.3c0.8,0.6,1.9,1.3,1.9,2.9C14,17.1,12.7,19.2,9.1,19.2z M19,12h-2v2h-1v-2h-2v-1h2V9h1v2h2V12z"></path></g></svg>