<svg xmlns="http://www.w3.org/2000/svg" viewBox="0 0 24 24" style="pointer-events: none; display: block;"><g id="post-instagram"><path d="M20,2H4C2.9,2,2,2.9,2,4l0,16c0,1.1,0.9,2,2,2h16c1.1,0,2-0.9,2-2V4C22,2.9,21.1,2,20,2z M12,8c2.2,0,4,1.8,4,4s-1.8,4-4,4c-2.2,0-4-1.8-4-4S9.8,8,12,8z M4.5,20C4.2,20,4,19.8,4,19.5V11h2.1C6,11.3,6,11.7,6,12c0,3.3,2.7,6,6,6c3.3,0,6-2.7,6-6c0-0.3,0-0.7-0.1-1H20v8.5c0,0.3-0.2,0.5-0.5,0.5H4.5z M20,6.5C20,6.8,19.8,7,19.5,7h-2C17.2,7,17,6.8,17,6.5v-2C17,4.2,17.2,4,17.5,4h2C19.8,4,20,4.2,20,4.5V6.5z"></path></g></svg>