<svg xmlns="http://www.w3.org/2000/svg" viewBox="0 0 24 24" style="pointer-events: none; display: block;"><g id="phone-missed"><path d="M6.5,5.5L12,11l7-7l-1-1l-6,6L7.5,4.5H11V3H5v6h1.5V5.5z M23.7,16.7c-3-2.9-7.2-4.7-11.7-4.7c-4.5,0-8.7,1.8-11.7,4.7C0.1,16.9,0,17.1,0,17.4s0.1,0.5,0.3,0.7l2.5,2.5c0.2,0.2,0.4,0.3,0.7,0.3c0.3,0,0.5-0.1,0.7-0.3c0.8-0.7,1.7-1.4,2.7-1.9c0.3-0.2,0.6-0.5,0.6-0.9v-3.1c1.4-0.5,3-0.7,4.6-0.7c1.6,0,3.2,0.3,4.6,0.7v3.1c0,0.4,0.2,0.7,0.6,0.9c1,0.5,1.9,1.1,2.7,1.9c0.2,0.2,0.4,0.3,0.7,0.3c0.3,0,0.5-0.1,0.7-0.3l2.5-2.5c0.2-0.2,0.3-0.4,0.3-0.7S23.9,16.9,23.7,16.7z"></path></g></svg>