<svg xmlns="http://www.w3.org/2000/svg" viewBox="0 0 24 24" style="pointer-events: none; display: block;"><g id="palette"><path d="M12,3c-5,0-9,4-9,9s4,9,9,9c0.8,0,1.5-0.7,1.5-1.5c0-0.4-0.1-0.7-0.4-1c-0.2-0.3-0.4-0.6-0.4-1c0-0.8,0.7-1.5,1.5-1.5H16c2.8,0,5-2.2,5-5C21,6.6,17,3,12,3z M6.5,12C5.7,12,5,11.3,5,10.5S5.7,9,6.5,9C7.3,9,8,9.7,8,10.5S7.3,12,6.5,12z M9.5,8C8.7,8,8,7.3,8,6.5S8.7,5,9.5,5C10.3,5,11,5.7,11,6.5S10.3,8,9.5,8z M14.5,8C13.7,8,13,7.3,13,6.5S13.7,5,14.5,5C15.3,5,16,5.7,16,6.5S15.3,8,14.5,8z M17.5,12c-0.8,0-1.5-0.7-1.5-1.5S16.7,9,17.5,9c0.8,0,1.5,0.7,1.5,1.5S18.3,12,17.5,12z"></path></g></svg>