<svg xmlns="http://www.w3.org/2000/svg" viewBox="0 0 24 24" style="pointer-events: none; display: block;"><g id="post-pinterest"><path d="M20,2H4C2.9,2,2,2.9,2,4l0,16c0,1.1,0.9,2,2,2h16c1.1,0,2-0.9,2-2V4C22,2.9,21.1,2,20,2z M13,16.2c-0.8,0-1.6-0.3-2.1-0.9l-1,3.2l-0.1,0.2l0,0c-0.2,0.3-0.5,0.5-0.9,0.5c-0.6,0-1.1-0.5-1.1-1.1c0-0.1,0-0.1,0-0.1l0,0l0.1-0.2l1.8-5.6c0,0-0.2-0.6-0.2-1.5c0-1.7,0.9-2.2,1.7-2.2c0.7,0,1.4,0.3,1.4,1.3c0,1.3-0.9,2-0.9,3c0,0.7,0.6,1.3,1.3,1.3c2.3,0,3.2-1.8,3.2-3.4c0-2.2-1.9-4-4.2-4c-2.3,0-4.2,1.8-4.2,4c0,0.7,0.2,1.3,0.5,1.9c0.1,0.2,0.1,0.3,0.1,0.5c0,0.6-0.4,1-1,1c-0.4,0-0.7-0.2-0.9-0.5c-0.5-0.9-0.8-1.9-0.8-3c0-3.3,2.8-6,6.2-6c3.4,0,6.2,2.7,6.2,6C18.2,13.4,16.6,16.2,13,16.2z"></path></g></svg>