<svg xmlns="http://www.w3.org/2000/svg" viewBox="0 0 24 24" style="pointer-events: none; display: block;"><g id="earth"><path d="M12,2C6.5,2,2,6.5,2,12s4.5,10,10,10c5.5,0,10-4.5,10-10S17.5,2,12,2z M12,20.2c-1.1,0-2.2-0.2-3.2-0.6c-0.6-1.5-0.6-2.6,1.1-2.1c0,0,3.9,1.5,8,0.1C16.5,19.2,14.4,20.2,12,20.2z M19.1,16.1c-0.9,0.4-2.1,1-4,1c-1.9,0-3.5-0.8-5.6-1.4c-1.9-0.6-2.6-1.5-3.8-1.5c-0.7,0-1,0.7-1.2,1.2c-0.5-1-0.8-2.2-0.8-3.4c0-0.8,0.1-1.6,0.3-2.3c1.3-1.6,3.2-2.6,6-0.4c0,0,6.2,4.7,9.8,5C19.7,14.9,19.4,15.5,19.1,16.1z M12.4,7.6C9.6,4.9,7.3,5.7,6.3,6.1c0.7-0.7,1.6-1.3,2.6-1.7c2.8-0.1,5.9,0.4,7.6,2.9c0,0,2.4,4.2,3.3,2.3c0.2,0.7,0.3,1.5,0.3,2.3c0,0.3,0,0.6,0,0.9C18.1,12.6,15.3,10.3,12.4,7.6z"></path></g></svg>