<svg xmlns="http://www.w3.org/2000/svg" viewBox="0 0 24 24" style="pointer-events: none; display: block;"><g id="ring-volume"><path d="M23.7,16.7c-3-2.9-7.2-4.7-11.7-4.7c-4.5,0-8.7,1.8-11.7,4.7C0.1,16.9,0,17.1,0,17.4c0,0.3,0.1,0.5,0.3,0.7l2.5,2.5c0.2,0.2,0.4,0.3,0.7,0.3c0.3,0,0.5-0.1,0.7-0.3c0.8-0.7,1.7-1.4,2.7-1.9c0.3-0.2,0.6-0.5,0.6-0.9l0-3.1c1.4-0.5,3-0.7,4.6-0.7s3.1,0.3,4.6,0.7l0,3.1c0,0.4,0.2,0.7,0.6,0.9c1,0.5,1.9,1.1,2.7,1.9c0.2,0.2,0.4,0.3,0.7,0.3c0.3,0,0.5-0.1,0.7-0.3l2.5-2.5c0.2-0.2,0.3-0.4,0.3-0.7C24,17.1,23.9,16.9,23.7,16.7z M21.2,6.3l-1.4-1.4l-3.6,3.6l1.4,1.4C17.6,9.8,21,6.3,21.2,6.3z M13,2h-2v5h2V2z M6.4,9.8l1.4-1.4L4.3,4.8L2.8,6.3C3,6.3,6.4,9.8,6.4,9.8z"></path></g></svg>