<svg xmlns="http://www.w3.org/2000/svg" viewBox="0 0 24 24" style="pointer-events: none; display: block;"><g id="screen-lock-rotation"><path d="M23.3,12.8l-2.6-2.6l-1.4,1.4l2.2,2.2l-5.7,5.7L4.5,8.2l5.7-5.7l2.1,2.1l1.4-1.4l-2.4-2.4c-0.6-0.6-1.5-0.6-2.1,0L2.7,7.1c-0.6,0.6-0.6,1.5,0,2.1l12,12c0.6,0.6,1.5,0.6,2.1,0l6.4-6.4C23.8,14.3,23.8,13.4,23.3,12.8z M8.5,20.5c-3.3-1.5-5.6-4.7-6-8.5H1c0.5,6.2,5.7,11,11.9,11c0.2,0,0.4,0,0.7,0l-3.8-3.8L8.5,20.5z M16,9h5c0.6,0,1-0.4,1-1V4c0-0.6-0.4-1-1-1V2.5C21,1.1,19.9,0,18.5,0C17.1,0,16,1.1,16,2.5V3c-0.6,0-1,0.4-1,1v4C15,8.6,15.4,9,16,9z M16.8,2.5c0-0.9,0.8-1.7,1.7-1.7c0.9,0,1.7,0.8,1.7,1.7V3h-3.4V2.5z"></path></g></svg>