<svg xmlns="http://www.w3.org/2000/svg" viewBox="0 0 24 24" style="pointer-events: none; display: block;"><g id="tag-faces"><path d="M17,11c0.6,0,1-0.4,1-1c0-0.6-0.4-1-1-1c-0.6,0-1,0.4-1,1C16,10.6,16.4,11,17,11z M15,16c1.9,0,3.4-1.3,3.8-3h-7.6C11.6,14.7,13.1,16,15,16z M13,11c0.6,0,1-0.4,1-1c0-0.6-0.4-1-1-1c-0.6,0-1,0.4-1,1C12,10.6,12.4,11,13,11z M22,3L7.6,3C7,3,6.4,3.3,6,3.8L0,12l6,8.2C6.4,20.7,7,21,7.6,21H22c1.1,0,2-0.9,2-2V5C24,3.9,23.1,3,22,3z M4,13c-0.6,0-1-0.4-1-1c0-0.6,0.4-1,1-1s1,0.4,1,1C5,12.6,4.6,13,4,13z M15,18c-3.3,0-6-2.7-6-6c0-3.3,2.7-6,6-6c3.3,0,6,2.7,6,6C21,15.3,18.3,18,15,18z"></path></g></svg>