<svg xmlns="http://www.w3.org/2000/svg" viewBox="0 0 24 24" style="pointer-events: none; display: block;"><g id="dialpad"><path d="M12,19c-1.1,0-2,0.9-2,2c0,1.1,0.9,2,2,2s2-0.9,2-2C14,19.9,13.1,19,12,19z M6,1C4.9,1,4,1.9,4,3c0,1.1,0.9,2,2,2s2-0.9,2-2C8,1.9,7.1,1,6,1z M6,7C4.9,7,4,7.9,4,9c0,1.1,0.9,2,2,2s2-0.9,2-2C8,7.9,7.1,7,6,7z M6,13c-1.1,0-2,0.9-2,2c0,1.1,0.9,2,2,2s2-0.9,2-2C8,13.9,7.1,13,6,13z M18,5c1.1,0,2-0.9,2-2c0-1.1-0.9-2-2-2s-2,0.9-2,2C16,4.1,16.9,5,18,5z M12,13c-1.1,0-2,0.9-2,2c0,1.1,0.9,2,2,2s2-0.9,2-2C14,13.9,13.1,13,12,13z M18,13c-1.1,0-2,0.9-2,2c0,1.1,0.9,2,2,2s2-0.9,2-2C20,13.9,19.1,13,18,13z M18,7c-1.1,0-2,0.9-2,2c0,1.1,0.9,2,2,2s2-0.9,2-2C20,7.9,19.1,7,18,7z M12,7c-1.1,0-2,0.9-2,2c0,1.1,0.9,2,2,2s2-0.9,2-2C14,7.9,13.1,7,12,7z M12,1c-1.1,0-2,0.9-2,2c0,1.1,0.9,2,2,2s2-0.9,2-2C14,1.9,13.1,1,12,1z"></path></g></svg>