<svg xmlns="http://www.w3.org/2000/svg" viewBox="0 0 24 24" style="pointer-events: none; display: block;"><g id="traffic"><path d="M20,10h-3V8.9c1.7-0.4,3-2,3-3.9h-3V4c0-0.6-0.4-1-1-1H8C7.4,3,7,3.4,7,4v1H4c0,1.9,1.3,3.4,3,3.9V10H4c0,1.9,1.3,3.4,3,3.9V15H4c0,1.9,1.3,3.4,3,3.9V20c0,0.6,0.4,1,1,1h8c0.6,0,1-0.4,1-1v-1.1c1.7-0.4,3-2,3-3.9h-3v-1.1C18.7,13.4,20,11.9,20,10z M12,19c-1.1,0-2-0.9-2-2s0.9-2,2-2c1.1,0,2,0.9,2,2S13.1,19,12,19z M12,14c-1.1,0-2-0.9-2-2s0.9-2,2-2c1.1,0,2,0.9,2,2S13.1,14,12,14z M12,9c-1.1,0-2-0.9-2-2c0-1.1,0.9-2,2-2c1.1,0,2,0.9,2,2C14,8.1,13.1,9,12,9z"></path></g></svg>