<svg xmlns="http://www.w3.org/2000/svg" viewBox="0 0 24 24" style="pointer-events: none; display: block;"><g id="notifications-on"><path d="M6.6,3.6L5.2,2.2C2.8,4,1.2,6.8,1,10h2C3.2,7.3,4.5,5,6.6,3.6z M20,10h2c-0.2-3.2-1.7-6-4.1-7.8l-1.4,1.4C18.5,5,19.8,7.3,20,10z M18,10.5c0-3.1-2.1-5.6-5-6.3V3.5C13,2.7,12.3,2,11.5,2C10.7,2,10,2.7,10,3.5v0.7c-2.9,0.7-5,3.2-5,6.3V16l-2,2v1h17v-1l-2-2V10.5z M11.5,22c0.1,0,0.3,0,0.4,0c0.7-0.1,1.2-0.6,1.4-1.2c0.1-0.2,0.2-0.5,0.2-0.8h-4C9.5,21.1,10.4,22,11.5,22z"></path></g></svg>