<svg xmlns="http://www.w3.org/2000/svg" viewBox="0 0 24 24" style="pointer-events: none; display: block;"><g id="mic-off"><path d="M19,12h-1.7c0,0.7-0.2,1.4-0.4,2l1.2,1.2C18.7,14.3,19,13.2,19,12z"></path><path d="M15,12.2c0-0.1,0-0.1,0-0.2V6c0-1.7-1.3-3-3-3c-1.7,0-3,1.3-3,3v0.2L15,12.2z"></path><path d="M4.3,4L3,5.3l6,6L9,12c0,1.7,1.3,3,3,3c0.2,0,0.4,0,0.7-0.1l1.7,1.7c-0.7,0.3-1.5,0.5-2.3,0.5c-2.8,0-5.3-2.1-5.3-5.1H5c0,3.4,2.7,6.2,6,6.7V22h2v-3.3c0.9-0.1,1.8-0.5,2.5-0.9l4.2,4.2l1.3-1.3L4.3,4z"></path></g></svg>