<svg xmlns="http://www.w3.org/2000/svg" viewBox="0 0 24 24" style="pointer-events: none; display: block;"><g id="post-twitter"><path d="M20,2H4C2.9,2,2,2.9,2,4l0,16c0,1.1,0.9,2,2,2h16c1.1,0,2-0.9,2-2V4C22,2.9,21.1,2,20,2z M17.7,9.3c-0.1,4.6-3,7.8-7.4,8c-1.8,0.1-3.1-0.5-4.3-1.2c1.3,0.2,3-0.3,3.9-1.1c-1.3-0.1-2.1-0.8-2.5-1.9c0.4,0.1,0.8,0,1.1,0c-1.2-0.4-2-1.1-2.1-2.7c0.3,0.2,0.7,0.3,1.1,0.3c-0.9-0.5-1.5-2.4-0.8-3.6c1.3,1.4,2.9,2.6,5.5,2.8c-0.7-2.8,3.1-4.3,4.6-2.4c0.7-0.1,1.2-0.4,1.7-0.6c-0.2,0.7-0.6,1.1-1.1,1.5c0.5-0.1,1-0.2,1.4-0.4C18.7,8.5,18.2,8.9,17.7,9.3z"></path></g></svg>