<svg xmlns="http://www.w3.org/2000/svg" viewBox="0 0 24 24" style="pointer-events: none; display: block;"><g id="vpn"><path d="M22,4V3.5C22,2.1,20.9,1,19.5,1C18.1,1,17,2.1,17,3.5V4c-0.6,0-1,0.4-1,1v4c0,0.6,0.4,1,1,1h5c0.6,0,1-0.4,1-1V5C23,4.4,22.6,4,22,4z M21.2,4h-3.4V3.5c0-0.9,0.8-1.7,1.7-1.7c0.9,0,1.7,0.8,1.7,1.7V4z M18.9,12c0,0.3,0.1,0.7,0.1,1c0,2.1-0.8,4-2.1,5.4c-0.3-0.8-1-1.4-1.9-1.4h-1v-3c0-0.6-0.4-1-1-1H7v-2h2c0.6,0,1-0.4,1-1V8h2c1.1,0,2-0.9,2-2V3.5C13.1,3.2,12,3,11,3C5.5,3,1,7.5,1,13c0,5.5,4.5,10,10,10c5.5,0,10-4.5,10-10c0-0.3,0-0.7-0.1-1H18.9z M10,20.9c-3.9-0.5-7-3.9-7-7.9c0-0.6,0.1-1.2,0.2-1.8L8,16v1c0,1.1,0.9,2,2,2V20.9z"></path></g></svg>