<svg xmlns="http://www.w3.org/2000/svg" viewBox="0 0 24 24" style="pointer-events: none; display: block;"><g id="voicemail"><path d="M18.5,6c-3,0-5.5,2.5-5.5,5.5c0,1.3,0.5,2.5,1.3,3.5H9.7c0.8-1,1.3-2.2,1.3-3.5C11,8.5,8.5,6,5.5,6S0,8.5,0,11.5S2.5,17,5.5,17h13c3,0,5.5-2.5,5.5-5.5S21.5,6,18.5,6z M5.5,15C3.6,15,2,13.4,2,11.5C2,9.6,3.6,8,5.5,8C7.4,8,9,9.6,9,11.5C9,13.4,7.4,15,5.5,15z M18.5,15c-1.9,0-3.5-1.6-3.5-3.5C15,9.6,16.6,8,18.5,8c1.9,0,3.5,1.6,3.5,3.5C22,13.4,20.4,15,18.5,15z"></path></g></svg>