<?xml version="1.0" encoding="utf-8"?>
<!-- Generator: Adobe Illustrator 18.1.1, SVG Export Plug-In . SVG Version: 6.00 Build 0)  -->
<!DOCTYPE svg PUBLIC "-//W3C//DTD SVG 1.1//EN" "http://www.w3.org/Graphics/SVG/1.1/DTD/svg11.dtd">
<svg version="1.1" id="Layer_1" xmlns="http://www.w3.org/2000/svg" xmlns:xlink="http://www.w3.org/1999/xlink" x="0px" y="0px"
	 viewBox="0 0 100 100" enable-background="new 0 0 100 100" xml:space="preserve">
<g>
	<path fill="#515251" d="M19.5,33.1c1.7,0,3,1.3,3,3s-1.3,3-3,3s-3-1.3-3-3S17.9,33.1,19.5,33.1z M22.1,42.9v24.3H17V42.9H22.1z"/>
	<path fill="#515251" d="M37.9,42.9h5.2V59h-5.2v-1.9c-1.4,2.2-3.4,2.5-4.8,2.5c-2.3,0-4.2-0.6-6-2.4c-1.7-1.8-2.3-3.9-2.3-6
		c0-2.7,1-5,2.5-6.5c1.4-1.4,3.3-2.2,5.6-2.2c1.4,0,3.6,0.3,5,2.3V42.9z M31.4,48c-0.5,0.5-1.2,1.5-1.2,2.9s0.6,2.4,1.1,2.9
		c0.7,0.8,1.8,1.3,3.1,1.3c1,0,2-0.4,2.7-1.1c0.7-0.6,1.3-1.7,1.3-3c0-1.2-0.4-2.2-1.2-3c-0.8-0.8-1.9-1.1-2.9-1.1
		C33.1,46.9,32,47.3,31.4,48z"/>
	<path fill="#515251" d="M63.8,59h-5.2v-1.9c-0.8,1.2-2.2,2.5-5.1,2.5c-2.4,0-4.1-0.8-5.5-2.2c-1.7-1.7-2.5-4-2.5-6.4
		c0-2.7,1-4.9,2.5-6.3c1.4-1.3,3.4-2.2,5.6-2.2c1.8,0,3.7,0.6,5,2.3v-12h5.2V59z M52.1,47.9c-0.8,0.7-1.3,1.8-1.3,3.1
		c0,1.2,0.5,2.2,1.3,3c0.8,0.8,1.8,1.1,2.7,1.1c1,0,2.1-0.4,3-1.2c0.6-0.6,1.2-1.5,1.2-2.9c0-1.4-0.5-2.3-1.2-3
		c-0.8-0.9-1.8-1.2-2.9-1.2C53.8,46.9,52.9,47.2,52.1,47.9z"/>
	<path fill="#515251" d="M83.5,51.9h-12c0,0.9,0.3,2,1,2.7c0.8,0.9,1.9,1,2.7,1c0.8,0,1.5-0.1,2.1-0.5c0.1,0,0.7-0.4,1.1-1.3
		l4.9,0.5c-0.7,2.3-2.2,3.5-3.1,4c-1.5,0.9-3.3,1.2-5.1,1.2c-2.4,0-4.5-0.4-6.4-2.3c-1.4-1.4-2.4-3.5-2.4-6.2c0-2.3,0.8-4.7,2.4-6.3
		c1.9-1.9,4.4-2.3,6.2-2.3s4.4,0.3,6.4,2.4c1.9,2,2.3,4.5,2.3,6.5V51.9z M78.7,48.8c0-0.1-0.3-1.2-1-1.9c-0.6-0.5-1.4-0.9-2.4-0.9
		c-1.3,0-2.1,0.5-2.6,1c-0.4,0.4-0.8,1-0.9,1.7H78.7z"/>
</g>
</svg>
