<?xml version="1.0" encoding="utf-8"?>
<!-- Generator: Adobe Illustrator 18.1.1, SVG Export Plug-In . SVG Version: 6.00 Build 0)  -->
<!DOCTYPE svg PUBLIC "-//W3C//DTD SVG 1.1//EN" "http://www.w3.org/Graphics/SVG/1.1/DTD/svg11.dtd">
<svg version="1.1" id="Layer_1" xmlns="http://www.w3.org/2000/svg" xmlns:xlink="http://www.w3.org/1999/xlink" x="0px" y="0px"
	 viewBox="0 0 100 100" enable-background="new 0 0 100 100" xml:space="preserve">
<g>
	<path fill="#515251" d="M39.8,47.7c-0.1,0.8-0.3,1.5-0.4,2.3c-2.2,11.8-3.4,16.1-5,16.4c-1.7,0-1-0.3-2.1-5c-1-4.7-1.9-7.5-3-9
		c0.2-0.8,0.3-1.6,0.5-2.4c2.2-11.8,3.5-16.1,5-16.4h0.5C36.9,33.6,38.4,40.6,39.8,47.7z"/>
	<path fill="#515251" d="M72.8,51.1h9.5c-3.3,1.1-4.4,3.3-5,9.6c-0.4,4.5-2.4,5.7-2.4,5.7c-1.5,0-3-6.5-4.4-13.3
		C71.1,51.9,71.8,51.3,72.8,51.1z"/>
	<path fill="#515251" d="M74.9,66.4h-9.5c1.7,0,2.9-3.2,3.6-7.3c0.5-2.7,0.9-4.7,1.6-6.1C71.8,59.9,73.3,66.4,74.9,66.4z"/>
	<path fill="#9B9A9A" d="M70.5,53c-0.7,1.3-1.2,3.3-1.6,6.1c-0.7,4.1-1.9,7.3-3.6,7.3c-1.8-0.4-3.3-7.3-5.2-17.8
		c-0.1-0.3-0.1-0.6-0.2-1c1.5-7.5,3-14,4.5-14H65c1.8,0.4,3.3,7.3,5.2,17.8C70.3,51.8,70.4,52.4,70.5,53z"/>
	<path fill="#515251" d="M55.5,33.5h9c-1.5,0-3.1,6.5-4.5,14.1C58.7,40.5,57.1,33.5,55.5,33.5z"/>
	<path fill="#515251" d="M60,47.6c-0.1,0.8-0.3,1.5-0.4,2.3c-2.2,11.8-3.4,16.1-5,16.4c-1.7,0-3.3-7.6-4.7-15.1
		c0-0.1-0.1-0.2-0.1-0.3c0.1-0.3,0.1-0.6,0.2-1c2.2-11.8,3.4-16.1,4.9-16.4h0.5C57.1,33.5,58.7,40.5,60,47.6z"/>
	<path fill="#515251" d="M54.6,66.4h-9.5c1.6,0,3.3-7.3,4.7-15.4c0,0.1,0.1,0.2,0.1,0.3C51.3,58.8,53,66.4,54.6,66.4z"/>
	<path fill="#9B9A9A" d="M49.9,51c-1.5,8.2-3.1,15.4-4.7,15.4c-1.8-0.4-3.3-7.3-5.2-17.8c-0.1-0.3-0.1-0.6-0.2-1
		c1.4-7.6,2.9-14.1,4.4-14.1h0.5C46.6,33.9,48,40.6,49.9,51z"/>
	<path fill="#515251" d="M35.3,33.5h9c-1.5,0-3,6.5-4.5,14.1C38.4,40.5,36.9,33.5,35.3,33.5z"/>
	<path fill="#515251" d="M34.4,66.4h-9.5c1.5,0,3-6.5,4.5-14c1,1.5,1.9,4.3,3,9C33.4,66.1,32.7,66.4,34.4,66.4z"/>
	<path fill="#9B9A9A" d="M29.4,52.4c-1.5,7.5-3,14-4.5,14c-0.2-0.2-1.2,0-2.2-5.8c-0.9-5.4-2.4-8.7-5-9.4h9.5
		C28.1,51.1,28.8,51.5,29.4,52.4z"/>
</g>
</svg>
