<?xml version="1.0" encoding="utf-8"?>
<!-- Generator: Adobe Illustrator 18.1.1, SVG Export Plug-In . SVG Version: 6.00 Build 0)  -->
<!DOCTYPE svg PUBLIC "-//W3C//DTD SVG 1.1//EN" "http://www.w3.org/Graphics/SVG/1.1/DTD/svg11.dtd">
<svg version="1.1" id="Layer_1" xmlns="http://www.w3.org/2000/svg" xmlns:xlink="http://www.w3.org/1999/xlink" x="0px" y="0px"
	 viewBox="0 0 100 100" enable-background="new 0 0 100 100" xml:space="preserve">
<path fill="#515251" d="M49.9,68.6L49.9,68.6L49.9,68.6c-5,0-9.1-0.8-10.8-1.8l2,3.2l0.7,10c0,0,8,5.7,15.9,0l0.6-10.1l1.7-2.8
	C58.2,68,54.4,68.6,49.9,68.6L49.9,68.6L49.9,68.6z M60.8,54.9c-0.3,0.3-0.7,0.5-1,0.6c-0.3,0.1-0.7,0.2-1.1,0.2
	c-0.4,0-0.6-0.1-0.8-0.2c-0.2-0.2-0.3-0.4-0.3-0.6v-0.1c0,0,0,0,0-0.1c0-0.2,0.1-0.4,0.2-0.6c0.1-0.2,0.3-0.4,0.5-0.7
	c0.2-0.2,0.4-0.5,0.6-0.7c0.2-0.2,0.4-0.5,0.6-0.7c0.2-0.2,0.3-0.4,0.4-0.6c0.1-0.2,0.2-0.3,0.2-0.4c0-0.1,0-0.1-0.1-0.2
	c0,0-0.1-0.1-0.2-0.1c-0.2,0-0.4,0-0.6,0.1c-0.2,0.1-0.4,0.2-0.6,0.4c-0.2,0.2-0.4,0.4-0.6,0.6c-0.2,0.2-0.4,0.4-0.5,0.7
	c-0.2,0.2-0.3,0.5-0.4,0.7s-0.2,0.4-0.3,0.6l-0.1,0.3c-0.1,0.1-0.1,0.2-0.2,0.4c-0.1,0.1-0.1,0.3-0.2,0.4c-0.1,0.1-0.1,0.3-0.2,0.4
	l-0.2,0.4c0,0.1-0.1,0.2-0.1,0.2c0,0.1-0.1,0.1-0.1,0.3s-0.1,0.3-0.2,0.5l-0.2,0.6c-0.1,0.2-0.2,0.4-0.2,0.6
	c-0.1,0.2-0.1,0.3-0.2,0.5c-0.1,0.1-0.1,0.2-0.1,0.3c0,0.1-0.1,0.3-0.2,0.4c-0.1,0.1-0.1,0.2-0.2,0.3c-0.1,0.1-0.2,0.2-0.3,0.2
	c-0.1,0.1-0.2,0.1-0.4,0.1c-0.2,0-0.3,0-0.4-0.1c-0.1-0.1-0.2-0.2-0.2-0.5c0-0.1,0-0.2,0-0.3c0-0.1,0.1-0.2,0.1-0.3
	c0-0.1,0.1-0.2,0.1-0.3c0-0.1,0.1-0.2,0.1-0.3c0.3-0.6,0.5-1.1,0.8-1.7c0.3-0.6,0.5-1.1,0.8-1.7c0.1-0.1,0.1-0.2,0.1-0.3l0,0
	c-0.3,0.3-0.6,0.6-0.9,0.8c-0.3,0.2-0.6,0.4-0.9,0.5c-0.3,0.1-0.6,0.2-0.9,0.2c-0.2,0-0.4,0-0.5-0.1c-0.1-0.1-0.2-0.1-0.3-0.3
	c-0.1-0.1-0.1-0.2-0.2-0.4c0,0,0-0.1,0-0.2c-0.1,0.1-0.2,0.1-0.2,0.2c-0.3,0.2-0.6,0.4-0.9,0.5c-0.3,0.1-0.5,0.2-0.8,0.2
	c-0.2,0-0.4-0.1-0.6-0.2c-0.1-0.2-0.2-0.4-0.2-0.8c0-0.3,0-0.6,0.1-0.9c-0.1,0.2-0.3,0.4-0.5,0.7c-0.2,0.2-0.4,0.4-0.6,0.6
	c-0.2,0.2-0.5,0.3-0.8,0.4c-0.3,0.1-0.6,0.2-1,0.2c-0.2,0-0.3,0-0.4-0.1c-0.1,0-0.3-0.1-0.4-0.2c-0.1-0.1-0.2-0.2-0.3-0.4
	c-0.1-0.2-0.1-0.4-0.1-0.6c0,0,0-0.1,0-0.3c0-0.2,0.1-0.4,0.2-0.8c0.1-0.4,0.3-0.8,0.5-1.4c0.2-0.6,0.5-1.2,0.9-2
	c0.1-0.2,0.2-0.4,0.3-0.5c0.1-0.1,0.3-0.1,0.4-0.1c0.1,0,0.1,0,0.2,0c0.1,0,0.1,0,0.2,0.1c0.1,0,0.1,0.1,0.1,0.2
	c0,0.1,0.1,0.1,0.1,0.2c0,0.1,0,0.1,0,0.2c0,0.1-0.1,0.2-0.2,0.4c-0.1,0.2-0.2,0.3-0.3,0.5c-0.1,0.2-0.2,0.4-0.3,0.6
	c-0.1,0.2-0.2,0.5-0.3,0.7c-0.1,0.2-0.2,0.5-0.3,0.7c-0.1,0.3-0.1,0.5-0.1,0.7c0,0.1,0,0.2,0.1,0.3c0,0.1,0.1,0.1,0.2,0.1
	c0.3,0,0.6-0.1,0.9-0.3c0.3-0.2,0.5-0.4,0.8-0.7c0.2-0.3,0.4-0.6,0.6-1s0.3-0.7,0.5-0.9c0.1-0.2,0.2-0.4,0.2-0.6
	c0.1-0.2,0.1-0.4,0.2-0.6c0.1-0.2,0.2-0.3,0.3-0.5c0.1-0.1,0.2-0.2,0.4-0.2c0.2,0,0.3,0.1,0.4,0.2c0.1,0.1,0.1,0.3,0.1,0.5
	c0,0.1,0,0.2-0.1,0.4s-0.1,0.4-0.2,0.6c-0.1,0.2-0.2,0.5-0.3,0.7c-0.1,0.3-0.2,0.5-0.3,0.8c-0.1,0.3-0.2,0.5-0.2,0.8
	c-0.1,0.3-0.1,0.5-0.1,0.7c0,0.2,0.1,0.3,0.3,0.3c0.1,0,0.3-0.1,0.5-0.2c0.2-0.1,0.4-0.2,0.7-0.4c0.1,0,0.1-0.1,0.2-0.1
	c0.1-0.3,0.1-0.5,0.2-0.8c0.2-0.4,0.3-0.9,0.5-1.3c0.2-0.4,0.3-0.8,0.5-1.2l2.1-5.4c0.1-0.2,0.2-0.4,0.3-0.5
	c0.1-0.1,0.3-0.1,0.4-0.1c0.1,0,0.3,0,0.4,0.1c0.1,0.1,0.2,0.2,0.2,0.5c0,0.1,0,0.2-0.1,0.3c0,0.1-0.1,0.2-0.2,0.4
	c-0.1,0.3-0.3,0.6-0.4,1c-0.2,0.4-0.3,0.8-0.5,1.2c-0.2,0.4-0.4,0.9-0.6,1.4c-0.2,0.5-0.4,1-0.6,1.4c-0.2,0.5-0.4,0.9-0.5,1.3
	c-0.2,0.4-0.3,0.8-0.4,1.1c-0.1,0.1-0.1,0.3-0.2,0.4c0,0.2-0.1,0.3-0.1,0.5c0,0.1,0,0.2,0,0.2c0,0,0.1,0.1,0.2,0.1
	c0.1,0,0.2,0,0.4-0.1c0.1-0.1,0.3-0.2,0.5-0.3c0.2-0.1,0.4-0.2,0.5-0.4c0.2-0.1,0.4-0.3,0.6-0.5c0.2-0.2,0.4-0.3,0.5-0.5
	s0.3-0.3,0.4-0.4c0,0,0.1-0.1,0.1-0.1c0.1-0.2,0.2-0.5,0.2-0.7c0-0.1,0.1-0.2,0.2-0.4c0.1-0.2,0.1-0.4,0.2-0.5
	c0.1-0.2,0.2-0.3,0.3-0.5c0.1-0.1,0.2-0.2,0.3-0.2c0.2,0,0.3,0,0.4,0.1c0.1,0.1,0.1,0.2,0.1,0.4c0,0,0,0.1,0,0.2c0,0.1,0,0.1,0,0.2
	c0,0.1,0,0.2,0,0.2c0,0.1,0,0.1,0,0.2c0.2-0.2,0.4-0.4,0.6-0.6c0.2-0.2,0.4-0.4,0.6-0.5c0.2-0.2,0.4-0.3,0.7-0.4
	c0.2-0.1,0.5-0.1,0.7-0.1c0.2,0,0.3,0,0.5,0.1c0.2,0,0.3,0.1,0.4,0.2c0.1,0.1,0.2,0.2,0.3,0.3c0.1,0.1,0.1,0.3,0.1,0.5
	c0,0.2-0.1,0.5-0.2,0.7c-0.1,0.3-0.3,0.5-0.4,0.8c-0.2,0.3-0.4,0.5-0.6,0.8c-0.2,0.2-0.4,0.5-0.6,0.7c-0.2,0.2-0.3,0.4-0.4,0.5
	c-0.1,0.1-0.2,0.2-0.2,0.3c0,0.1,0,0.1,0.1,0.2c0,0,0.1,0.1,0.2,0.1c0.1,0,0.2,0,0.4-0.1c0.2-0.1,0.4-0.2,0.7-0.5
	c0.3-0.2,0.6-0.5,1.1-0.9c0.3-0.3,0.6-0.6,1-0.9l2-17.3h0c-2,1-7.7,2-14.4,2c-6.7,0-12.3-1-14.4-2h0l1.5,15.8
	c0.1-0.3,0.2-0.5,0.3-0.8c0.2-0.6,0.4-1.1,0.7-1.6c0.3-0.5,0.6-1,0.9-1.5c0.3-0.5,0.6-0.9,1-1.3c0.4-0.4,0.7-0.7,1.1-1
	c0.4-0.3,0.7-0.5,1.1-0.7c0.4-0.2,0.8-0.2,1.1-0.2c0.4,0,0.8,0.1,1.2,0.4c0.4,0.2,0.8,0.6,1.1,1.1c0.1,0.1,0.1,0.2,0.2,0.4
	c0,0.1,0,0.2,0,0.3c0,0.3-0.1,0.4-0.2,0.6c-0.1,0.1-0.3,0.2-0.4,0.2c-0.2,0-0.3-0.1-0.4-0.2c-0.1-0.2-0.3-0.4-0.4-0.7
	c-0.2-0.3-0.3-0.5-0.5-0.6c-0.2-0.1-0.4-0.2-0.6-0.2c-0.3,0-0.7,0.1-1.1,0.4c-0.4,0.3-0.7,0.6-1.1,1.1c-0.4,0.4-0.7,1-1.1,1.5
	s-0.6,1.2-0.9,1.8c-0.3,0.6-0.5,1.2-0.6,1.8c-0.2,0.6-0.2,1.1-0.2,1.6c0,0.2,0,0.3,0,0.5c0,0.2,0.1,0.3,0.1,0.4
	c0.1,0.1,0.1,0.2,0.2,0.3c0.1,0.1,0.2,0.1,0.4,0.1c0.2,0,0.4-0.1,0.6-0.2c0.2-0.1,0.5-0.3,0.7-0.5c0.2-0.2,0.5-0.4,0.7-0.6
	c0.2-0.2,0.5-0.5,0.7-0.7c0.2-0.2,0.4-0.5,0.5-0.7c0.2-0.2,0.3-0.4,0.4-0.6l0.7-2c0.1-0.2,0.2-0.4,0.3-0.5c0.1-0.1,0.3-0.1,0.4-0.1
	c0.1,0,0.1,0,0.2,0c0.1,0,0.1,0.1,0.2,0.1c0.1,0,0.1,0.1,0.1,0.2c0,0.1,0,0.2,0,0.3c0,0.3,0,0.5-0.1,0.8c0,0.2-0.1,0.5-0.2,0.7
	c-0.1,0.2-0.2,0.4-0.2,0.7c-0.1,0.2-0.2,0.5-0.3,0.7c0,0-0.1,0.1-0.1,0.3c0,0.1-0.1,0.3-0.2,0.6c-0.1,0.2-0.1,0.5-0.2,0.7
	c-0.1,0.3-0.2,0.6-0.3,0.8c-0.1,0.3-0.2,0.6-0.3,0.8c-0.1,0.3-0.2,0.5-0.2,0.7c-0.1,0.2-0.1,0.4-0.2,0.6c0,0.2-0.1,0.2-0.1,0.3
	c0,0.1-0.1,0.2-0.1,0.3c-0.1,0.1-0.1,0.2-0.2,0.3c-0.1,0.1-0.1,0.2-0.2,0.2c-0.1,0.1-0.2,0.1-0.3,0.1c-0.2,0-0.3-0.1-0.3-0.2
	c-0.1-0.1-0.1-0.3-0.1-0.6v-0.1c0,0,0-0.1,0-0.1c0-0.1,0-0.3,0.1-0.5c0.1-0.2,0.1-0.5,0.2-0.8c0.1-0.3,0.2-0.6,0.3-1
	c0.1-0.3,0.2-0.6,0.3-0.9c-0.2,0.3-0.5,0.6-0.8,0.8c-0.3,0.3-0.6,0.5-0.9,0.7c-0.3,0.2-0.6,0.4-0.9,0.5c-0.3,0.1-0.6,0.2-0.9,0.2
	c-0.3,0-0.6-0.1-0.8-0.2c0,0-0.1-0.1-0.1-0.1l1,10.1l0.6,0.9c1.6,1.1,5.8,1.8,10.7,1.8c4.5,0,8.4-0.6,10.2-1.5l0.7-1.2l1.4-12
	c-0.1,0.1-0.2,0.2-0.3,0.3C61.5,54.3,61.1,54.6,60.8,54.9L60.8,54.9z M50,32.2c-8,0-14.4,0.7-14.4,1.7c0,0.9,6.4,2.3,14.4,2.3
	c8,0,14.4-1.4,14.4-2.3C64.4,33,58,32.2,50,32.2z M52.6,34.9c-0.9,0-1.7-0.3-1.7-0.5c0-0.1,0.1-0.2,0.3-0.3c0.1-0.2,0.7-0.4,1.4-0.4
	c0.7,0,1.3,0.2,1.4,0.4c0.2,0.1,0.4,0.2,0.4,0.3C54.3,34.6,53.5,34.9,52.6,34.9z M52.6,34.6c0.8,0,1.4-0.2,1.4-0.4c0,0,0-0.1,0-0.1
	c-0.3-0.1-0.9-0.2-1.4-0.2c-0.6,0-1.1,0.1-1.4,0.2c0,0,0,0,0,0.1C51.1,34.4,51.8,34.6,52.6,34.6L52.6,34.6z M63.1,18.9l-1.9-1.4
	l-7.7,8.1l-2.2,8.5H54l2.2-7.6L63.1,18.9z"/>
</svg>
