<?xml version="1.0" encoding="utf-8"?>
<!-- Generator: Adobe Illustrator 18.1.1, SVG Export Plug-In . SVG Version: 6.00 Build 0)  -->
<!DOCTYPE svg PUBLIC "-//W3C//DTD SVG 1.1//EN" "http://www.w3.org/Graphics/SVG/1.1/DTD/svg11.dtd">
<svg version="1.1" id="Layer_1" xmlns="http://www.w3.org/2000/svg" xmlns:xlink="http://www.w3.org/1999/xlink" x="0px" y="0px"
	 viewBox="0 0 100 100" enable-background="new 0 0 100 100" xml:space="preserve">
<g>
	
		<linearGradient id="path7508_1_" gradientUnits="userSpaceOnUse" x1="-656.6121" y1="271.1023" x2="-622.5677" y2="237.053" gradientTransform="matrix(0.9988 0 0 -0.9987 688.4203 304.1896)">
		<stop  offset="0" style="stop-color:#010101"/>
		<stop  offset="1" style="stop-color:#FFFFFF"/>
	</linearGradient>
	<path id="path7508" fill="url(#path7508_1_)" d="M50,61.8c10.7,14.6,21.1-4.1,21.1-15.3c0-13.2-13.4-20.6-21.1-20.6
		c-12.3,0-24.1,10.2-24.1,24.1c0,15.5,13.5,24.1,24.1,24.1c-2.4-0.3-10.4-2.1-10.5-20.5c-0.1-12.5,4.1-17.5,10.5-15.3
		c0.1,0.1,7.1,2.8,7.1,11.8C57,59,50,61.8,50,61.8z"/>
	
		<linearGradient id="path7510_1_" gradientUnits="userSpaceOnUse" x1="-621.0262" y1="238.5944" x2="-655.0707" y2="272.6436" gradientTransform="matrix(0.9988 0 0 -0.9987 688.4203 304.1896)">
		<stop  offset="0" style="stop-color:#010101"/>
		<stop  offset="1" style="stop-color:#FFFFFF"/>
	</linearGradient>
	<path id="path7510" fill="url(#path7510_1_)" d="M49.9,38.4c-7.1-2.4-15.7,3.4-15.7,15c0,19,14.1,20.7,15.8,20.7
		c12.3,0,24.1-10.2,24.1-24.1c0-15.5-13.5-24.1-24.1-24.1c2.9-0.4,15.9,3.2,15.9,20.8c0,11.5-9.6,17.8-15.9,15.1
		c-0.1-0.1-7.1-2.8-7.1-11.8C42.9,41.1,49.9,38.4,49.9,38.4z"/>
</g>
</svg>
